<?xml version="1.0" encoding="UTF-8" standalone="no"?>
<!-- Created with Inkscape (http://www.inkscape.org/) -->

<svg
   width="132.46242mm"
   height="26.571205mm"
   viewBox="0 0 132.46242 26.571205"
   version="1.1"
   id="svg482"
   xml:space="preserve"
   sodipodi:docname="hlBanner.svg"
   inkscape:version="1.2.2 (732a01da63, 2022-12-09)"
   xmlns:inkscape="http://www.inkscape.org/namespaces/inkscape"
   xmlns:sodipodi="http://sodipodi.sourceforge.net/DTD/sodipodi-0.dtd"
   xmlns="http://www.w3.org/2000/svg"
   xmlns:svg="http://www.w3.org/2000/svg"><sodipodi:namedview
     id="namedview484"
     pagecolor="#ffffff"
     bordercolor="#000000"
     borderopacity="0.25"
     inkscape:showpageshadow="2"
     inkscape:pageopacity="0.0"
     inkscape:pagecheckerboard="0"
     inkscape:deskcolor="#d1d1d1"
     inkscape:document-units="mm"
     showgrid="false"
     inkscape:zoom="2.4168808"
     inkscape:cx="217.63589"
     inkscape:cy="50.06453"
     inkscape:window-width="1920"
     inkscape:window-height="1027"
     inkscape:window-x="-8"
     inkscape:window-y="-8"
     inkscape:window-maximized="1"
     inkscape:current-layer="layer1" /><defs
     id="defs479" /><g
     inkscape:label="Layer 1"
     inkscape:groupmode="layer"
     id="layer1"
     transform="translate(-44.486327,-37.295565)"><g
       aria-label="HarrisonLabs"
       transform="scale(1.0508178,0.95163973)"
       id="text720"
       style="font-size:16.8785px;font-family:'Wix Madefor Display';-inkscape-font-specification:'Wix Madefor Display';stroke-width:0.711689;stroke-linecap:round;stroke-linejoin:round"><path
         d="M 58.895232,64.248695 H 55.99213 V 52.180568 h 2.903102 v 4.692223 h 4.928522 v -4.692223 h 2.903102 v 12.068127 h -2.903102 v -4.9454 h -4.928522 z"
         style="stroke-width:0.71169"
         id="path4778" /><path
         d="m 71.739774,64.518751 q -0.995831,0 -1.772242,-0.354448 -0.759533,-0.371327 -1.181495,-1.01271 -0.421963,-0.641383 -0.421963,-1.502187 0,-1.299644 1.164617,-2.059177 1.164616,-0.759532 3.173158,-0.759532 h 1.5697 q -0.08439,-0.658262 -0.590747,-0.995832 -0.506355,-0.33757 -1.316523,-0.33757 -0.67514,0 -1.282766,0.236299 -0.607626,0.236299 -1.063346,0.67514 l -1.35028,-1.68785 q 0.67514,-0.624504 1.68785,-0.978953 1.029589,-0.371327 2.160448,-0.371327 1.333402,0 2.329233,0.421963 1.01271,0.421962 1.569701,1.249009 0.573869,0.810168 0.573869,2.008541 v 5.198578 h -2.548654 v -0.89456 q -0.455719,0.55699 -1.147738,0.860803 -0.692018,0.303813 -1.552822,0.303813 z m 0.742654,-2.059177 q 0.590748,0 1.063346,-0.286934 0.489476,-0.303813 0.742654,-0.810168 v -0.810168 h -1.417794 q -0.759533,0 -1.198374,0.270056 -0.421962,0.270056 -0.421962,0.708897 0,0.421962 0.33757,0.67514 0.354448,0.253177 0.89456,0.253177 z"
         style="stroke-width:0.71169"
         id="path4780" /><path
         d="m 84.398651,55.488754 v 2.531775 h -0.540112 q -1.215252,0 -1.822878,0.590747 -0.590747,0.590748 -0.590747,1.924149 v 3.71327 H 78.592447 V 55.64066 h 2.835588 v 1.485308 q 0.286935,-0.658261 0.708897,-1.01271 0.438841,-0.354448 0.928318,-0.489476 0.506355,-0.135028 0.945196,-0.135028 z"
         style="stroke-width:0.71169"
         id="path4782" /><path
         d="m 91.470755,55.488754 v 2.531775 h -0.540112 q -1.215252,0 -1.822878,0.590747 -0.590748,0.590748 -0.590748,1.924149 v 3.71327 H 85.664551 V 55.64066 h 2.835588 v 1.485308 q 0.286934,-0.658261 0.708897,-1.01271 0.438841,-0.354448 0.928317,-0.489476 0.506355,-0.135028 0.945196,-0.135028 z"
         style="stroke-width:0.71169"
         id="path4784" /><path
         d="m 94.154444,54.644829 q -0.67514,0 -1.147738,-0.438841 -0.472598,-0.45572 -0.472598,-1.113981 0,-0.67514 0.472598,-1.113981 0.472598,-0.45572 1.147738,-0.45572 0.692019,0 1.147738,0.45572 0.472598,0.438841 0.472598,1.113981 0,0.658261 -0.472598,1.113981 -0.455719,0.438841 -1.147738,0.438841 z m 1.434673,9.603866 H 92.73665 V 55.64066 h 2.852467 z"
         style="stroke-width:0.71169"
         id="path4786" /><path
         d="m 96.787491,62.982808 1.434672,-1.721607 q 0.556991,0.55699 1.400916,0.877682 0.843921,0.320691 1.620331,0.320691 0.64139,0 0.97896,-0.185663 0.35445,-0.202542 0.35445,-0.472598 0,-0.320692 -0.33757,-0.45572 -0.33757,-0.151906 -1.33341,-0.286934 -1.822873,-0.253178 -2.751191,-0.877682 -0.928317,-0.641383 -0.928317,-1.806 0,-0.89456 0.506355,-1.5697 0.506355,-0.67514 1.384037,-1.046467 0.877682,-0.388206 1.991666,-0.388206 1.35028,0 2.37987,0.405084 1.04646,0.405084 1.73848,1.01271 l -1.43467,1.738486 q -0.52324,-0.489477 -1.23213,-0.79329 -0.69202,-0.303813 -1.43467,-0.303813 -0.57387,0 -0.89457,0.202542 -0.320687,0.185664 -0.320687,0.438841 0,0.286935 0.354447,0.405084 0.37133,0.11815 1.31652,0.253178 1.73849,0.270056 2.71744,0.911439 0.97896,0.641383 0.97896,1.890392 0,0.911439 -0.52324,1.586579 -0.52323,0.67514 -1.46843,1.046467 -0.94519,0.354448 -2.21108,0.354448 -1.282766,0 -2.430504,-0.421962 -1.13086,-0.421963 -1.856635,-1.113981 z"
         style="stroke-width:0.71169"
         id="path4788" /><path
         d="m 111.01607,64.518751 q -1.45155,0 -2.56553,-0.573869 -1.09711,-0.590747 -1.72161,-1.620336 -0.60763,-1.046467 -0.60763,-2.379868 0,-1.35028 0.60763,-2.379869 0.6245,-1.029588 1.72161,-1.603457 1.11398,-0.590748 2.56553,-0.590748 1.45155,0 2.54865,0.590748 1.11398,0.573869 1.72161,1.603457 0.6245,1.029589 0.6245,2.379869 0,1.333401 -0.6245,2.379868 -0.60763,1.029589 -1.72161,1.620336 -1.0971,0.573869 -2.54865,0.573869 z m 0,-2.329233 q 0.87768,0 1.41779,-0.624504 0.54011,-0.641383 0.54011,-1.620336 0,-0.995832 -0.54011,-1.620336 -0.54011,-0.624505 -1.41779,-0.624505 -0.87768,0 -1.4178,0.624505 -0.54011,0.624504 -0.54011,1.620336 0,0.978953 0.54011,1.620336 0.54012,0.624504 1.4178,0.624504 z"
         style="stroke-width:0.71169"
         id="path4790" /><path
         d="m 126.03793,64.248695 h -2.85247 v -4.979157 q 0,-0.79329 -0.35445,-1.181495 -0.35445,-0.388206 -0.96207,-0.388206 -0.64138,0 -1.14774,0.523234 -0.50635,0.506355 -0.50635,1.654093 v 4.371531 h -2.85247 V 55.64066 h 2.83559 v 1.367159 q 0.28693,-0.658262 0.70889,-1.01271 0.43884,-0.354449 0.92832,-0.489477 0.50636,-0.135028 0.9452,-0.135028 1.50218,0 2.37987,0.928318 0.87768,0.928317 0.87768,2.683681 z"
         style="stroke-width:0.71169"
         id="path4792" /><path
         d="m 136.16503,64.248695 h -8.30422 V 52.180568 h 2.9031 v 9.586988 h 5.40112 z"
         style="stroke-width:0.71169"
         id="path4794" /><path
         d="m 140.63783,64.518751 q -0.99583,0 -1.77225,-0.354448 -0.75953,-0.371327 -1.18149,-1.01271 -0.42196,-0.641383 -0.42196,-1.502187 0,-1.299644 1.16461,-2.059177 1.16462,-0.759532 3.17316,-0.759532 h 1.5697 q -0.0844,-0.658262 -0.59075,-0.995832 -0.50635,-0.33757 -1.31652,-0.33757 -0.67514,0 -1.28276,0.236299 -0.60763,0.236299 -1.06335,0.67514 l -1.35028,-1.68785 q 0.67514,-0.624504 1.68785,-0.978953 1.02959,-0.371327 2.16045,-0.371327 1.3334,0 2.32923,0.421963 1.01271,0.421962 1.5697,1.249009 0.57387,0.810168 0.57387,2.008541 v 5.198578 h -2.54865 v -0.89456 q -0.45572,0.55699 -1.14774,0.860803 -0.69202,0.303813 -1.55282,0.303813 z m 0.74265,-2.059177 q 0.59075,0 1.06335,-0.286934 0.48947,-0.303813 0.74265,-0.810168 v -0.810168 h -1.41779 q -0.75954,0 -1.19838,0.270056 -0.42196,0.270056 -0.42196,0.708897 0,0.421962 0.33757,0.67514 0.35445,0.253177 0.89456,0.253177 z"
         style="stroke-width:0.71169"
         id="path4796" /><path
         d="m 150.32608,64.248695 h -2.83558 v -12.15252 h 2.85246 v 4.489681 q 0.42196,-0.55699 1.08023,-0.877682 0.65826,-0.33757 1.55282,-0.33757 1.14774,0 2.10981,0.573869 0.97895,0.573869 1.55282,1.603458 0.59075,1.01271 0.59075,2.396747 0,1.367158 -0.59075,2.396747 -0.57387,1.029588 -1.53594,1.603457 -0.96208,0.573869 -2.10981,0.573869 -0.89456,0 -1.5697,-0.320691 -0.67514,-0.33757 -1.09711,-0.894561 z m 0.0169,-4.371531 v 1.147738 q 0.20254,0.540112 0.7089,0.860803 0.50635,0.303813 1.14774,0.303813 0.94519,0 1.51906,-0.624504 0.57387,-0.641383 0.57387,-1.620336 0,-0.978953 -0.52323,-1.603458 -0.52324,-0.641383 -1.45155,-0.641383 -0.86081,0 -1.4178,0.573869 -0.55699,0.573869 -0.55699,1.603458 z"
         style="stroke-width:0.71169"
         id="path4798" /><path
         d="m 157.82014,62.982808 1.43467,-1.721607 q 0.55699,0.55699 1.40091,0.877682 0.84393,0.320691 1.62034,0.320691 0.64138,0 0.97895,-0.185663 0.35445,-0.202542 0.35445,-0.472598 0,-0.320692 -0.33757,-0.45572 -0.33757,-0.151906 -1.3334,-0.286934 -1.82288,-0.253178 -2.75119,-0.877682 -0.92832,-0.641383 -0.92832,-1.806 0,-0.89456 0.50635,-1.5697 0.50636,-0.67514 1.38404,-1.046467 0.87768,-0.388206 1.99166,-0.388206 1.35028,0 2.37987,0.405084 1.04647,0.405084 1.73849,1.01271 l -1.43468,1.738486 q -0.52323,-0.489477 -1.23213,-0.79329 -0.69201,-0.303813 -1.43467,-0.303813 -0.57387,0 -0.89456,0.202542 -0.32069,0.185664 -0.32069,0.438841 0,0.286935 0.35445,0.405084 0.37132,0.11815 1.31652,0.253178 1.73849,0.270056 2.71744,0.911439 0.97895,0.641383 0.97895,1.890392 0,0.911439 -0.52323,1.586579 -0.52323,0.67514 -1.46843,1.046467 -0.9452,0.354448 -2.21108,0.354448 -1.28277,0 -2.43051,-0.421962 -1.13086,-0.421963 -1.85663,-1.113981 z"
         style="stroke-width:0.71169"
         id="path4800" /></g><path
       style="fill:#5f8dd3;fill-opacity:1;stroke:none;stroke-width:1.01562;stroke-linecap:round;stroke-linejoin:round;stroke-opacity:1"
       d="M 45.154457,61.575105 71.437584,37.604812 H 44.879228 Z"
       id="path1380"
       sodipodi:nodetypes="cccc" /><path
       style="fill:#000000;stroke-width:0.036689"
       d="m 51.98311,50.129555 c -0.0097,-0.01475 -0.08248,-0.293919 -0.161499,-0.620369 -0.07902,-0.326452 -0.163303,-0.61079 -0.187292,-0.631863 -0.02399,-0.02108 -0.182406,-0.08182 -0.352042,-0.13502 -0.169633,-0.05319 -0.419585,-0.14738 -0.555442,-0.209312 l -0.247019,-0.112598 -0.591133,0.34364 c -0.325127,0.189001 -0.615181,0.343639 -0.644565,0.343639 -0.0294,0 -0.326247,-0.25911 -0.65969,-0.575803 l -0.606254,-0.575805 0.38708,-0.55534 0.387082,-0.555342 -0.129243,-0.221792 C 48.552005,46.501607 48.438878,46.258428 48.371694,46.0832 L 48.249545,45.764605 47.684032,45.65391 c -0.31103,-0.06088 -0.630567,-0.126297 -0.710085,-0.145366 l -0.144573,-0.03468 v -0.800461 c 0,-0.727014 0.0063,-0.803361 0.06748,-0.832093 0.0371,-0.01741 0.363168,-0.09041 0.724584,-0.162236 l 0.657119,-0.1306 0.06809,-0.214324 c 0.03746,-0.11788 0.143563,-0.355729 0.235809,-0.528557 l 0.167724,-0.314228 -0.386326,-0.549878 -0.386326,-0.549878 0.606582,-0.576116 c 0.333624,-0.316864 0.630658,-0.576117 0.660088,-0.576117 0.02943,0 0.323959,0.154783 0.654518,0.343962 l 0.601015,0.343961 0.294895,-0.129753 c 0.162191,-0.07136 0.416338,-0.16543 0.564769,-0.209039 0.148427,-0.0436 0.273744,-0.08197 0.278475,-0.08526 0.0047,-0.0033 0.07006,-0.264318 0.145176,-0.580082 0.07511,-0.315763 0.153428,-0.609757 0.174023,-0.65332 l 0.03746,-0.0792 0.894062,0.0093 0.894062,0.0093 0.157015,0.64099 0.157018,0.640991 0.34698,0.112758 c 0.190839,0.06201 0.452206,0.161196 0.580819,0.220393 l 0.233839,0.107636 0.595056,-0.34539 c 0.327281,-0.189966 0.612405,-0.345554 0.633607,-0.345754 0.0463,-4.23e-4 1.293877,1.086219 1.292498,1.125783 -6.66e-4,0.01519 -0.175268,0.277349 -0.388304,0.582572 l -0.387337,0.554954 0.123695,0.220463 c 0.06803,0.121258 0.179606,0.361442 0.247937,0.533752 l 0.124238,0.313292 0.573129,0.112168 c 0.315217,0.06168 0.638502,0.129606 0.718403,0.150919 l 0.145283,0.03875 -0.01026,0.81017 -0.01026,0.810169 -0.346979,0.07513 c -0.190841,0.04133 -0.513186,0.109417 -0.716327,0.15132 l -0.36935,0.07618 -0.08856,0.250195 c -0.04871,0.137609 -0.156049,0.372166 -0.238547,0.521239 l -0.149995,0.271042 0.39185,0.561414 0.391847,0.561412 -0.631686,0.572854 c -0.347426,0.315071 -0.64923,0.572446 -0.670674,0.571947 -0.02145,-5.14e-4 -0.306143,-0.15462 -0.632656,-0.342486 l -0.593667,-0.341578 -0.286948,0.130552 c -0.157823,0.07181 -0.414927,0.166524 -0.571337,0.210494 l -0.284384,0.07995 -0.08229,0.332747 c -0.04526,0.183012 -0.119546,0.474154 -0.165088,0.64698 l -0.08279,0.31423 -0.893655,0.0093 c -0.491505,0.0052 -0.901672,-0.0028 -0.911473,-0.01745 z m 1.751013,-3.022631 c 0.908971,-0.279437 1.597859,-0.932187 1.851262,-1.754141 0.167022,-0.541769 0.09574,-1.308991 -0.164717,-1.772895 -0.557466,-0.992904 -1.662969,-1.549317 -2.84267,-1.43075 -0.70642,0.071 -1.18866,0.279847 -1.680963,0.727997 -0.538967,0.490625 -0.78487,0.98874 -0.819509,1.660033 -0.06611,1.281253 0.825926,2.346459 2.207135,2.635599 0.372777,0.07802 1.086975,0.04559 1.449462,-0.06585 z"
       id="path4670" /><rect
       style="fill:none;fill-opacity:1;stroke:#000000;stroke-width:0.79375;stroke-linecap:butt;stroke-linejoin:bevel;stroke-dasharray:none;stroke-opacity:1;paint-order:stroke fill markers"
       id="rect4776"
       width="131.66866"
       height="25.777456"
       x="44.883202"
       y="37.69244" /></g></svg>
