<?xml version="1.0" encoding="UTF-8" standalone="no"?>
<!-- Created with Inkscape (http://www.inkscape.org/) -->

<svg
   width="26.556576mm"
   height="26.580198mm"
   viewBox="0 0 26.556575 26.580199"
   version="1.1"
   id="svg482"
   xml:space="preserve"
   sodipodi:docname="hlLogo.svg"
   xmlns:inkscape="http://www.inkscape.org/namespaces/inkscape"
   xmlns:sodipodi="http://sodipodi.sourceforge.net/DTD/sodipodi-0.dtd"
   xmlns="http://www.w3.org/2000/svg"
   xmlns:svg="http://www.w3.org/2000/svg"><sodipodi:namedview
     id="namedview986"
     pagecolor="#ffffff"
     bordercolor="#000000"
     borderopacity="0.25"
     inkscape:showpageshadow="2"
     inkscape:pageopacity="0.0"
     inkscape:pagecheckerboard="0"
     inkscape:deskcolor="#d1d1d1"
     inkscape:document-units="mm"
     showgrid="false" /><defs
     id="defs479" /><g
     id="layer1"
     transform="translate(-44.480551,-37.291068)"
     style="stroke-width:0.9;stroke-dasharray:none"><g
       aria-label="HarrisonLabs"
       transform="matrix(1.0234178,0,0,0.95197174,1.1645506,-0.0176467)"
       id="text720"
       style="font-size:16.8785px;font-family:'Wix Madefor Display';-inkscape-font-specification:'Wix Madefor Display';stroke-width:0.911809;stroke-linecap:round;stroke-linejoin:round;stroke-dasharray:none"><path
         d="M 58.895232,64.248695 H 55.99213 V 52.180568 h 2.903102 v 4.692223 h 4.928522 v -4.692223 h 2.903102 v 12.068127 h -2.903102 v -4.9454 h -4.928522 z"
         style="stroke-width:0.911809;stroke-dasharray:none"
         id="path4872" /></g><path
       style="fill:#5f8dd3;fill-opacity:1;stroke:none;stroke-width:0.9;stroke-linecap:round;stroke-linejoin:round;stroke-dasharray:none;stroke-opacity:1"
       d="M 45.141609,61.578941 70.739406,37.600285 H 44.873557 Z"
       id="path1380" /><path
       style="fill:#000000;stroke-width:0.9;stroke-dasharray:none"
       d="m 51.792205,50.129397 c -0.0094,-0.01475 -0.08033,-0.294021 -0.157287,-0.620585 -0.07696,-0.326566 -0.159045,-0.611003 -0.182409,-0.632083 -0.02336,-0.02109 -0.17765,-0.08185 -0.342862,-0.135068 -0.16521,-0.05321 -0.408645,-0.147431 -0.540959,-0.209385 l -0.240578,-0.112637 -0.57572,0.34376 c -0.316649,0.189067 -0.59914,0.343759 -0.627758,0.343759 -0.02863,0 -0.31774,-0.2592 -0.642488,-0.576004 l -0.590446,-0.576006 0.376987,-0.555534 0.376989,-0.555535 -0.125873,-0.22187 c -0.06923,-0.122025 -0.179412,-0.365289 -0.244844,-0.540578 l -0.118964,-0.318706 -0.550767,-0.110734 c -0.30292,-0.0609 -0.614125,-0.126341 -0.69157,-0.145417 l -0.140803,-0.03469 v -0.80074 c 0,-0.727268 0.0061,-0.803641 0.06572,-0.832383 0.03613,-0.01742 0.353699,-0.09044 0.705691,-0.162293 l 0.639984,-0.130646 0.06632,-0.214398 c 0.03648,-0.117921 0.13982,-0.355853 0.22966,-0.528742 l 0.163351,-0.314337 -0.376253,-0.55007 -0.376252,-0.55007 0.590765,-0.576317 c 0.324925,-0.316975 0.614214,-0.576318 0.642876,-0.576318 0.02866,0 0.315512,0.154837 0.637452,0.344082 l 0.585343,0.344081 0.287206,-0.129798 c 0.157962,-0.07138 0.405482,-0.165488 0.550043,-0.209112 0.144557,-0.04361 0.266606,-0.082 0.271214,-0.08529 0.0046,-0.0033 0.06823,-0.26441 0.14139,-0.580284 0.07315,-0.315874 0.149427,-0.60997 0.169485,-0.653548 l 0.03648,-0.07923 0.870749,0.0093 0.87075,0.0093 0.15292,0.641213 0.152924,0.641215 0.337933,0.112797 c 0.185863,0.06203 0.440414,0.161252 0.565674,0.22047 l 0.227742,0.107674 0.579539,-0.345511 c 0.318748,-0.190032 0.596437,-0.345674 0.617086,-0.345875 0.04509,-4.23e-4 1.26014,1.086598 1.258796,1.126176 -6.48e-4,0.0152 -0.170697,0.277446 -0.378179,0.582775 l -0.377237,0.555148 0.12047,0.22054 c 0.06626,0.1213 0.174923,0.361568 0.241472,0.533938 l 0.120998,0.313402 0.558185,0.112207 c 0.306998,0.0617 0.621853,0.129651 0.699671,0.150971 l 0.141495,0.03876 -0.01,0.810452 -0.01,0.810452 -0.337932,0.07516 c -0.185865,0.04134 -0.499805,0.109456 -0.697649,0.151373 l -0.359719,0.07621 -0.08625,0.250282 c -0.04744,0.137657 -0.15198,0.372296 -0.232327,0.521421 l -0.146084,0.271136 0.381633,0.56161 0.38163,0.561608 -0.615215,0.573054 c -0.338367,0.315181 -0.632302,0.572646 -0.653186,0.572147 -0.02089,-5.15e-4 -0.298161,-0.154674 -0.61616,-0.342606 L 54.98487,48.421773 54.705404,48.55237 c -0.153708,0.07184 -0.404108,0.166583 -0.556439,0.210568 l -0.276969,0.07998 -0.08014,0.332863 c -0.04408,0.183076 -0.116429,0.474319 -0.160784,0.647206 l -0.08063,0.314339 -0.870353,0.0093 c -0.478689,0.0052 -0.878161,-0.0028 -0.887707,-0.01746 z m 1.705356,-3.023685 c 0.88527,-0.279535 1.556195,-0.932512 1.80299,-1.754753 0.162667,-0.541958 0.09324,-1.309448 -0.160422,-1.773514 -0.54293,-0.99325 -1.619607,-1.549857 -2.768547,-1.431249 -0.688,0.07102 -1.157666,0.279945 -1.637132,0.728251 -0.524914,0.490796 -0.764405,0.989085 -0.798141,1.660612 -0.06439,1.2817 0.80439,2.347278 2.149585,2.636519 0.363056,0.07805 1.058632,0.04561 1.411667,-0.06587 z"
       id="path4670" /><rect
       style="fill:none;fill-opacity:1;stroke:#000000;stroke-width:0.79375;stroke-linecap:butt;stroke-linejoin:bevel;stroke-dasharray:none;stroke-opacity:1;paint-order:stroke fill markers"
       id="rect4776"
       width="25.762825"
       height="25.786448"
       x="44.877426"
       y="37.687943" /></g></svg>
